<svg width="32" height="32" viewBox="0 0 32 32" fill="none" xmlns="http://www.w3.org/2000/svg">
<path d="M14.6667 24C12.0667 24 9.86137 23.0947 8.05071 21.284C6.24004 19.4733 5.33426 17.2676 5.33337 14.6667V6.66667C5.33337 5.93333 5.59471 5.30578 6.11737 4.784C6.64004 4.26222 7.2676 4.00089 8.00004 4H24.6667C25.9556 4 27.0556 4.45556 27.9667 5.36667C28.8778 6.27778 29.3334 7.37778 29.3334 8.66667C29.3334 9.95556 28.8778 11.0556 27.9667 11.9667C27.0556 12.8778 25.9556 13.3333 24.6667 13.3333H24V14.6667C24 17.2667 23.0947 19.4724 21.284 21.284C19.4734 23.0956 17.2676 24.0009 14.6667 24ZM8.00004 10.6667H21.3334V6.66667H8.00004V10.6667ZM24 10.6667H24.6667C25.2223 10.6667 25.6947 10.4724 26.084 10.084C26.4734 9.69556 26.6676 9.22311 26.6667 8.66667C26.6658 8.11022 26.4716 7.63822 26.084 7.25067C25.6965 6.86311 25.224 6.66844 24.6667 6.66667H24V10.6667ZM5.33337 28V25.3333H26.6667V28H5.33337Z" fill="#AD7041"/>
</svg>
